<?xml version="1.0" encoding="UTF-8"?>
<svg width="752pt" height="752pt" version="1.1" viewBox="0 0 752 752" xmlns="http://www.w3.org/2000/svg">
 <g>
  <path d="m494.4 228.01h-33.25l4.8359-30.191h-0.003906c0.42188-2.6055-0.21875-5.2695-1.7734-7.3984-1.5312-2.1133-3.8398-3.5312-6.4141-3.9492l-48.738-7.793c-2.5938-0.42578-5.2461 0.19922-7.3789 1.7344-2.1289 1.5391-3.5586 3.8594-3.9688 6.4531l-6.4141 41.145h-133.69c-7.8477 0-15.379 3.1172-20.93 8.668s-8.668 13.082-8.668 20.93v19.734c0 2.6172 1.0391 5.125 2.8906 6.9766 1.8477 1.8477 4.3594 2.8867 6.9766 2.8867h5.7227l22.395 259.09c0.64453 7.3984 4.043 14.281 9.5273 19.289 5.4805 5.0078 12.648 7.7734 20.07 7.7461h161.02c7.4258 0.027344 14.59-2.7383 20.07-7.7461 5.4844-5.0078 8.8828-11.891 9.5273-19.289l22.199-259.09h5.7227c2.6172 0 5.125-1.0391 6.9766-2.8867 1.8516-1.8516 2.8906-4.3594 2.8906-6.9766v-19.734c0-7.8477-3.1172-15.379-8.6719-20.93-5.5508-5.5508-13.078-8.668-20.926-8.668zm-78.934-28.219 29.598 4.6367-3.8438 23.582h-29.598zm-167.73 57.816c0-5.4492 4.418-9.8672 9.8672-9.8672h236.79c2.6133 0 5.125 1.043 6.9766 2.8906 1.8477 1.8516 2.8867 4.3594 2.8867 6.9766v9.8672h-256.52zm172.96 77.648c-8.1875-2.3672-16.574-4.8359-25.355-6.9062l6.4141-41.145h30.094l-7.6953 49.332zm-38.871-48.051-5.8242 37.098c-36.199-5.6094-73.172-3.5586-108.53 6.0195l-4.0469-43.117zm84.555 257.41-0.003906 0.003907c-0.46094 5.0977-4.7461 8.9961-9.8633 8.9766h-161.12c-5.1211 0.019531-9.4062-3.8789-9.8672-8.9766l-16.773-194.37c48.008-13.852 99.129-12.473 146.32 3.9453 21.512 7.1289 43.875 11.375 66.5 12.629zm17.07-197.32h-0.003907c-13.562-0.35937-27.035-2.2773-40.156-5.7227l8.4844-54.363h36.801z"/>
  <path d="m336.54 514.13c0 10.898-8.832 19.734-19.73 19.734-10.898 0-19.734-8.8359-19.734-19.734 0-10.898 8.8359-19.73 19.734-19.73 10.898 0 19.73 8.832 19.73 19.73"/>
  <path d="m395.73 504.26c0 10.898-8.8359 19.734-19.734 19.734s-19.73-8.8359-19.73-19.734c0-10.898 8.832-19.73 19.73-19.73s19.734 8.832 19.734 19.73"/>
  <path d="m454.93 514.13c0 10.898-8.832 19.734-19.73 19.734-10.898 0-19.734-8.8359-19.734-19.734 0-10.898 8.8359-19.73 19.734-19.73 10.898 0 19.73 8.832 19.73 19.73"/>
  <path d="m356.27 454.93c0 10.898-8.8359 19.734-19.734 19.734-10.898 0-19.73-8.8359-19.73-19.734 0-10.895 8.832-19.73 19.73-19.73 10.898 0 19.734 8.8359 19.734 19.73"/>
  <path d="m435.2 454.93c0 10.898-8.8359 19.734-19.734 19.734-10.895 0-19.73-8.8359-19.73-19.734 0-10.895 8.8359-19.73 19.73-19.73 10.898 0 19.734 8.8359 19.734 19.73"/>
 </g>
</svg>
